<svg width="32" height="32" viewBox="0 0 32 32" fill="none" xmlns="http://www.w3.org/2000/svg">
<path d="M12.7529 20.3203V19.8835C12.7529 18.6762 12.8523 17.7138 13.0511 16.9965C13.2571 16.2791 13.5554 15.7039 13.946 15.2706C14.3367 14.8303 14.8125 14.429 15.3736 14.0668C15.821 13.7827 16.2188 13.4951 16.5668 13.2039C16.9219 12.9056 17.2024 12.586 17.4084 12.2451C17.6144 11.9041 17.7173 11.5171 17.7173 11.0838C17.7173 10.6648 17.6179 10.2955 17.419 9.97587C17.2202 9.65627 16.9467 9.41124 16.5987 9.24079C16.2578 9.06323 15.8779 8.97445 15.4588 8.97445C15.0398 8.97445 14.6456 9.07033 14.2763 9.2621C13.9141 9.45386 13.6158 9.7273 13.3814 10.0824C13.1541 10.4304 13.0369 10.853 13.0298 11.3502H8.12927C8.15058 9.85869 8.49504 8.6371 9.16265 7.68539C9.83737 6.73369 10.7287 6.03056 11.8367 5.57602C12.9446 5.11437 14.1662 4.88354 15.5014 4.88354C16.9645 4.88354 18.2642 5.11082 19.4006 5.56536C20.544 6.01991 21.4425 6.69107 22.0959 7.57886C22.7493 8.46664 23.076 9.55329 23.076 10.8388C23.076 11.684 22.934 12.4297 22.6499 13.076C22.3658 13.7223 21.9681 14.2941 21.4567 14.7912C20.9524 15.2813 20.3594 15.7287 19.6776 16.1335C19.1449 16.446 18.701 16.7728 18.3459 17.1137C17.9979 17.4546 17.7351 17.8452 17.5575 18.2855C17.38 18.7188 17.2912 19.2514 17.2912 19.8835V20.3203H12.7529ZM15.1073 27.309C14.3402 27.309 13.6832 27.0391 13.1364 26.4993C12.5966 25.9595 12.3303 25.3061 12.3374 24.5391C12.3303 23.7862 12.5966 23.1435 13.1364 22.6108C13.6832 22.071 14.3402 21.8012 15.1073 21.8012C15.8388 21.8012 16.4815 22.071 17.0355 22.6108C17.5895 23.1435 17.87 23.7862 17.8771 24.5391C17.87 25.0504 17.7351 25.5156 17.4723 25.9347C17.2166 26.3537 16.8793 26.6875 16.4602 26.9361C16.0483 27.1847 15.5973 27.309 15.1073 27.309Z" fill="#C3C3C3"/>
</svg>
