<svg width="658" height="75" viewBox="0 0 658 75" fill="none" xmlns="http://www.w3.org/2000/svg">
<path d="M0.6875 74V1.27273H20.4318V58.0909H49.8352V74H0.6875ZM57.8164 74V1.27273H110.231V17.1818H77.5607V29.6818H107.532V45.5909H77.5607V58.0909H110.089V74H57.8164ZM138.915 74H117.609L141.614 1.27273H168.603L192.609 74H171.302L155.393 21.3011H154.825L138.915 74ZM134.938 45.3068H174.995V60.0795H134.938V45.3068ZM199.613 74V1.27273H231.005C236.403 1.27273 241.126 2.25521 245.174 4.22017C249.223 6.18513 252.371 9.0142 254.62 12.7074C256.869 16.4006 257.994 20.8276 257.994 25.9886C257.994 31.197 256.834 35.5885 254.514 39.1634C252.217 42.7382 248.986 45.437 244.819 47.2599C240.676 49.0829 235.835 49.9943 230.295 49.9943H211.545V34.6534H226.318C228.638 34.6534 230.615 34.3693 232.248 33.8011C233.905 33.2093 235.172 32.2741 236.048 30.9957C236.948 29.7173 237.397 28.0483 237.397 25.9886C237.397 23.9053 236.948 22.2126 236.048 20.9105C235.172 19.5848 233.905 18.6141 232.248 17.9986C230.615 17.3594 228.638 17.0398 226.318 17.0398H219.358V74H199.613ZM242.227 40.6193L260.409 74H238.96L221.204 40.6193H242.227ZM328.271 64.0568V11.5H344.18V64.0568H328.271ZM309.947 45.733V29.8239H362.504V45.733H309.947ZM478.36 1.27273V74H461.882L435.604 35.7898H435.178V74H415.434V1.27273H432.195L458.047 39.3409H458.615V1.27273H478.36ZM507.444 1.27273V74H487.699V1.27273H507.444ZM579.727 1.27273V74H563.25L536.971 35.7898H536.545V74H516.801V1.27273H533.562L559.414 39.3409H559.983V1.27273H579.727ZM636.297 25.2784C635.989 24.0237 635.503 22.9228 634.841 21.9759C634.178 21.0052 633.349 20.1884 632.355 19.5256C631.384 18.839 630.248 18.33 628.946 17.9986C627.667 17.6435 626.259 17.4659 624.72 17.4659C621.405 17.4659 618.576 18.259 616.233 19.8452C613.913 21.4313 612.137 23.7159 610.906 26.6989C609.699 29.6818 609.095 33.2803 609.095 37.4943C609.095 41.7557 609.675 45.4015 610.835 48.4318C611.995 51.4621 613.723 53.7822 616.02 55.392C618.316 57.0019 621.169 57.8068 624.578 57.8068C627.584 57.8068 630.082 57.3688 632.071 56.4929C634.083 55.617 635.586 54.3741 636.581 52.7642C637.575 51.1544 638.072 49.2604 638.072 47.0824L641.481 47.4375H624.862V33.375H657.106V43.4602C657.106 50.089 655.698 55.759 652.88 60.4702C650.087 65.1577 646.228 68.7562 641.304 71.2656C636.403 73.7514 630.78 74.9943 624.436 74.9943C617.357 74.9943 611.143 73.491 605.792 70.4844C600.442 67.4777 596.263 63.1927 593.257 57.6293C590.274 52.0658 588.782 45.4489 588.782 37.7784C588.782 31.7652 589.694 26.4384 591.517 21.7983C593.363 17.1581 595.92 13.2401 599.187 10.044C602.454 6.82434 606.23 4.39773 610.515 2.7642C614.8 1.107 619.393 0.278406 624.294 0.278406C628.602 0.278406 632.603 0.893938 636.297 2.125C640.013 3.33238 643.292 5.0606 646.133 7.30966C648.998 9.53504 651.306 12.1747 653.058 15.2287C654.81 18.2827 655.875 21.6326 656.254 25.2784H636.297Z" fill="#C3C3C3"/>
</svg>
